<?xml version="1.0" encoding="UTF-8" standalone="no"?>
<!-- Created with Inkscape (http://www.inkscape.org/) -->

<svg
   xmlns:dc="http://purl.org/dc/elements/1.1/"
   xmlns:cc="http://creativecommons.org/ns#"
   xmlns:rdf="http://www.w3.org/1999/02/22-rdf-syntax-ns#"
   xmlns:svg="http://www.w3.org/2000/svg"
   xmlns="http://www.w3.org/2000/svg"
   xmlns:sodipodi="http://sodipodi.sourceforge.net/DTD/sodipodi-0.dtd"
   xmlns:inkscape="http://www.inkscape.org/namespaces/inkscape"
   width="210mm"
   height="297mm"
   viewBox="0 0 744.09448819 1052.3622047"
   id="svg2"
   version="1.1"
   inkscape:version="0.91 r13725"
   sodipodi:docname="tables.svg">
  <defs
     id="defs4" />
  <sodipodi:namedview
     id="base"
     pagecolor="#ffffff"
     bordercolor="#666666"
     borderopacity="1.0"
     inkscape:pageopacity="0.0"
     inkscape:pageshadow="2"
     inkscape:zoom="0.84363417"
     inkscape:cx="292.7665"
     inkscape:cy="664.84883"
     inkscape:document-units="px"
     inkscape:current-layer="layer1"
     showgrid="false"
     inkscape:window-width="1097"
     inkscape:window-height="554"
     inkscape:window-x="-8"
     inkscape:window-y="-8"
     inkscape:window-maximized="1" />
  <metadata
     id="metadata7">
    <rdf:RDF>
      <cc:Work
         rdf:about="">
        <dc:format>image/svg+xml</dc:format>
        <dc:type
           rdf:resource="http://purl.org/dc/dcmitype/StillImage" />
        <dc:title />
      </cc:Work>
    </rdf:RDF>
  </metadata>
  <g
     inkscape:label="Layer 1"
     inkscape:groupmode="layer"
     id="layer1">
    <path
       style="fill:#ff9955;fill-opacity:1;fill-rule:evenodd;stroke:#000000;stroke-width:0.68345946px;stroke-linecap:butt;stroke-linejoin:miter;stroke-opacity:1"
       d="m 30.551235,235.0736 c 5.08772,-4.91107 17.05042,-4.93011 17.05042,-4.93011 l 21.51973,0.059 21.51973,0.059 21.519725,0.059 21.51973,0.059 21.51972,0.059 21.51973,0.059 c 0,0 13.24379,0.0882 18.30056,5.02703 5.05679,4.93888 3.15354,15.92685 3.15354,15.92685 l -0.0656,20.89488 -0.0656,20.89487 c 0,0 2.46709,13.48839 -2.62063,18.39945 -5.08772,4.91106 -18.96472,2.43643 -18.96472,2.43643 l -21.51973,-0.059 -21.51972,-0.059 -21.51974,-0.059 -21.519725,-0.059 -21.51972,-0.059 -21.51973,-0.059 c 0,0 -11.96823,1.78166 -17.02501,-3.15721 -5.05679,-4.93889 -4.42908,-17.79667 -4.42908,-17.79667 l 0.0656,-20.89488 0.0656,-20.89487 c 0,0 -0.55279,-10.99471 4.53493,-15.90577 z"
       id="path4140"
       inkscape:connector-curvature="0"
       sodipodi:nodetypes="scccccccscccscccccccscccs" />
    <path
       style="fill:#ff9955;fill-opacity:1;fill-rule:evenodd;stroke:#000000;stroke-width:0.68345946px;stroke-linecap:butt;stroke-linejoin:miter;stroke-opacity:1"
       d="m 30.216828,421.2351 c 5.08772,-4.91107 17.05042,-4.93011 17.05042,-4.93011 l 21.51973,0.059 21.51973,0.059 21.519722,0.059 21.51973,0.059 21.51972,0.059 21.51973,0.059 c 0,0 13.24379,0.0882 18.30056,5.02703 5.05679,4.93888 3.15354,15.92685 3.15354,15.92685 l -0.0656,20.89488 -0.0656,20.89487 c 0,0 2.46709,13.48839 -2.62063,18.39945 -5.08772,4.91106 -18.96472,2.43643 -18.96472,2.43643 l -21.51973,-0.059 -21.51972,-0.059 -21.51974,-0.059 -21.519722,-0.059 -21.51972,-0.059 -21.51973,-0.059 c 0,0 -11.96823,1.78166 -17.02501,-3.15721 -5.05679,-4.93889 -4.42908,-17.79667 -4.42908,-17.79667 l 0.0656,-20.89488 0.0656,-20.89487 c 0,0 -0.55279,-10.99471 4.53493,-15.90577 z"
       id="path4140-5"
       inkscape:connector-curvature="0"
       sodipodi:nodetypes="scccccccscccscccccccscccs" />
    <path
       style="fill:#ff9955;fill-opacity:1;fill-rule:evenodd;stroke:#000000;stroke-width:0.68345946px;stroke-linecap:butt;stroke-linejoin:miter;stroke-opacity:1"
       d="m 272.36935,420.73671 c 5.08772,-4.91107 17.05042,-4.93011 17.05042,-4.93011 l 21.51973,0.059 21.51973,0.059 21.51972,0.059 21.51974,0.059 21.51972,0.059 21.51973,0.059 c 0,0 13.24379,0.0882 18.30056,5.02703 5.05679,4.93888 3.15354,15.92685 3.15354,15.92685 l -0.0656,20.89488 -0.0656,20.89487 c 0,0 2.46709,13.48839 -2.62063,18.39945 -5.08772,4.91106 -18.96472,2.43643 -18.96472,2.43643 l -21.51973,-0.059 -21.51972,-0.059 -21.51975,-0.059 -21.51972,-0.059 -21.51972,-0.059 -21.51973,-0.059 c 0,0 -11.96823,1.78166 -17.02501,-3.15721 -5.05679,-4.93889 -4.42908,-17.79667 -4.42908,-17.79667 l 0.0656,-20.89488 0.0656,-20.89487 c 0,0 -0.55279,-10.99471 4.53493,-15.90577 z"
       id="path4140-5-0"
       inkscape:connector-curvature="0"
       sodipodi:nodetypes="scccccccscccscccccccscccs" />
    <path
       style="fill:#ff9955;fill-opacity:1;fill-rule:evenodd;stroke:#000000;stroke-width:0.68345946px;stroke-linecap:butt;stroke-linejoin:miter;stroke-opacity:1"
       d="m 511.18036,421.76334 c 5.08772,-4.91107 17.05042,-4.93011 17.05042,-4.93011 l 21.51973,0.059 21.51973,0.059 21.51972,0.059 21.51974,0.059 21.51972,0.059 21.51973,0.059 c 0,0 13.24379,0.0882 18.30056,5.02703 5.05679,4.93888 3.15354,15.92685 3.15354,15.92685 l -0.0656,20.89488 -0.0656,20.89487 c 0,0 2.46709,13.48839 -2.62063,18.39945 -5.08772,4.91106 -18.96472,2.43643 -18.96472,2.43643 l -21.51973,-0.059 -21.51972,-0.059 -21.51975,-0.059 -21.51972,-0.059 -21.51972,-0.059 -21.51973,-0.059 c 0,0 -11.96823,1.78166 -17.02501,-3.15721 -5.05679,-4.93889 -4.42908,-17.79667 -4.42908,-17.79667 l 0.0656,-20.89488 0.0656,-20.89487 c 0,0 -0.55279,-10.99471 4.53493,-15.90577 z"
       id="path4140-5-0-3"
       inkscape:connector-curvature="0"
       sodipodi:nodetypes="scccccccscccscccccccscccs" />
    <path
       style="fill:#ff9955;fill-opacity:1;fill-rule:evenodd;stroke:#000000;stroke-width:0.68345946px;stroke-linecap:butt;stroke-linejoin:miter;stroke-opacity:1"
       d="m 512.16233,234.79166 c 5.08772,-4.91107 17.05042,-4.93011 17.05042,-4.93011 l 21.51973,0.059 21.51973,0.059 21.51972,0.059 21.51974,0.059 21.51972,0.059 21.51973,0.059 c 0,0 13.24379,0.0882 18.30056,5.02703 5.05679,4.93888 3.15354,15.92685 3.15354,15.92685 l -0.0656,20.89488 -0.0656,20.89487 c 0,0 2.46709,13.48839 -2.62063,18.39945 -5.08772,4.91106 -18.96472,2.43643 -18.96472,2.43643 l -21.51973,-0.059 -21.51972,-0.059 -21.51975,-0.059 -21.51972,-0.059 -21.51972,-0.059 -21.51973,-0.059 c 0,0 -11.96823,1.78166 -17.02501,-3.15721 -5.05679,-4.93889 -4.42908,-17.79667 -4.42908,-17.79667 l 0.0656,-20.89488 0.0656,-20.89487 c 0,0 -0.55279,-10.99471 4.53493,-15.90577 z"
       id="path4140-9"
       inkscape:connector-curvature="0"
       sodipodi:nodetypes="scccccccscccscccccccscccs" />
    <path
       style="fill:#de8787;fill-rule:evenodd;stroke:#000000;stroke-width:0.17252021px;stroke-linecap:butt;stroke-linejoin:miter;stroke-opacity:1"
       d="m 157.9705,331.20834 c 4.32529,-3.96792 13.84674,-4.02046 18.11695,0 4.21546,3.96891 4.21546,12.86976 0,16.83867 -4.3797,4.12354 -14.25902,4.17673 -18.58149,0 -4.16177,-4.02147 -3.80674,-12.9203 0.46454,-16.83867 z"
       id="path4219"
       inkscape:connector-curvature="0"
       sodipodi:nodetypes="aaaaa" />
    <path
       style="fill:#de8787;fill-rule:evenodd;stroke:#000000;stroke-width:0.17252021px;stroke-linecap:butt;stroke-linejoin:miter;stroke-opacity:1"
       d="m 65.07431,332.25214 c 4.32529,-3.96792 13.84674,-4.02046 18.11695,0 4.21546,3.96891 4.21546,12.86976 0,16.83867 -4.3797,4.12354 -14.25902,4.17673 -18.58149,0 -4.16177,-4.02147 -3.80674,-12.9203 0.46454,-16.83867 z"
       id="path4219-4"
       inkscape:connector-curvature="0"
       sodipodi:nodetypes="aaaaa" />
    <path
       style="fill:#de8787;fill-rule:evenodd;stroke:#000000;stroke-width:0.17252021px;stroke-linecap:butt;stroke-linejoin:miter;stroke-opacity:1"
       d="m 159.07431,200.25214 c 4.32529,-3.96792 13.84674,-4.02046 18.11695,0 4.21546,3.96891 4.21546,12.86976 0,16.83867 -4.3797,4.12354 -14.25902,4.17673 -18.58149,0 -4.16177,-4.02147 -3.80674,-12.9203 0.46454,-16.83867 z"
       id="path4219-4-8"
       inkscape:connector-curvature="0"
       sodipodi:nodetypes="aaaaa" />
    <path
       style="fill:#de8787;fill-rule:evenodd;stroke:#000000;stroke-width:0.17252021px;stroke-linecap:butt;stroke-linejoin:miter;stroke-opacity:1"
       d="m 157.07431,380.25214 c 4.32529,-3.96792 13.84674,-4.02046 18.11695,0 4.21546,3.96891 4.21546,12.86976 0,16.83867 -4.3797,4.12354 -14.25902,4.17673 -18.58149,0 -4.16177,-4.02147 -3.80674,-12.9203 0.46454,-16.83867 z"
       id="path4219-4-8-6"
       inkscape:connector-curvature="0"
       sodipodi:nodetypes="aaaaa" />
    <path
       style="fill:#de8787;fill-rule:evenodd;stroke:#000000;stroke-width:0.17252021px;stroke-linecap:butt;stroke-linejoin:miter;stroke-opacity:1"
       d="m 65.07431,380.25214 c 4.32529,-3.96792 13.84674,-4.02046 18.11695,0 4.21546,3.96891 4.21546,12.86976 0,16.83867 -4.3797,4.12354 -14.25902,4.17673 -18.58149,0 -4.16177,-4.02147 -3.80674,-12.9203 0.46454,-16.83867 z"
       id="path4219-4-8-6-4"
       inkscape:connector-curvature="0"
       sodipodi:nodetypes="aaaaa" />
    <path
       style="fill:#de8787;fill-rule:evenodd;stroke:#000000;stroke-width:0.17252021px;stroke-linecap:butt;stroke-linejoin:miter;stroke-opacity:1"
       d="m 66.72712,201.52319 c 4.32529,-3.96792 13.84674,-4.02046 18.11695,0 4.21546,3.96891 4.21546,12.86976 0,16.83867 -4.3797,4.12354 -14.25902,4.17673 -18.58149,0 -4.16177,-4.02147 -3.80674,-12.9203 0.46454,-16.83867 z"
       id="path4219-0-0-2-8-7-2-7-08-3"
       inkscape:connector-curvature="0"
       sodipodi:nodetypes="aaaaa" />
    <path
       style="fill:#de8787;fill-rule:evenodd;stroke:#000000;stroke-width:0.17252021px;stroke-linecap:butt;stroke-linejoin:miter;stroke-opacity:1"
       d="m 152.79511,510.98187 c 4.32529,-3.96792 13.84675,-4.02046 18.11696,0 4.21546,3.96891 4.21546,12.86976 0,16.83867 -4.3797,4.12354 -14.25903,4.17673 -18.5815,0 -4.16177,-4.02147 -3.80674,-12.9203 0.46454,-16.83867 z"
       id="path4219-4-8-6-0"
       inkscape:connector-curvature="0"
       sodipodi:nodetypes="aaaaa" />
    <path
       style="fill:#de8787;fill-rule:evenodd;stroke:#000000;stroke-width:0.17252021px;stroke-linecap:butt;stroke-linejoin:miter;stroke-opacity:1"
       d="m 60.79511,510.98187 c 4.32529,-3.96792 13.84674,-4.02046 18.11695,0 4.21546,3.96891 4.21546,12.86976 0,16.83867 -4.3797,4.12354 -14.25902,4.17673 -18.58149,0 -4.16177,-4.02147 -3.80674,-12.9203 0.46454,-16.83867 z"
       id="path4219-4-8-6-4-5"
       inkscape:connector-curvature="0"
       sodipodi:nodetypes="aaaaa" />
    <path
       style="fill:#de8787;fill-rule:evenodd;stroke:#000000;stroke-width:0.17252021px;stroke-linecap:butt;stroke-linejoin:miter;stroke-opacity:1"
       d="m 390.73942,386.66247 c 4.32529,-3.96792 13.84675,-4.02046 18.11696,0 4.21546,3.96891 4.21546,12.86976 0,16.83867 -4.3797,4.12354 -14.25903,4.17673 -18.5815,0 -4.16177,-4.02147 -3.80674,-12.9203 0.46454,-16.83867 z"
       id="path4219-4-8-6-0-4"
       inkscape:connector-curvature="0"
       sodipodi:nodetypes="aaaaa" />
    <path
       style="fill:#de8787;fill-rule:evenodd;stroke:#000000;stroke-width:0.17252021px;stroke-linecap:butt;stroke-linejoin:miter;stroke-opacity:1"
       d="m 298.73942,386.66247 c 4.32529,-3.96792 13.84674,-4.02046 18.11695,0 4.21546,3.96891 4.21546,12.86976 0,16.83867 -4.3797,4.12354 -14.25902,4.17673 -18.58149,0 -4.16177,-4.02147 -3.80674,-12.9203 0.46454,-16.83867 z"
       id="path4219-4-8-6-4-5-1"
       inkscape:connector-curvature="0"
       sodipodi:nodetypes="aaaaa" />
    <path
       style="fill:#de8787;fill-rule:evenodd;stroke:#000000;stroke-width:0.17252021px;stroke-linecap:butt;stroke-linejoin:miter;stroke-opacity:1"
       d="m 389.11012,511.79652 c 4.32529,-3.96792 13.84675,-4.02046 18.11696,0 4.21546,3.96891 4.21546,12.86976 0,16.83867 -4.3797,4.12354 -14.25903,4.17673 -18.5815,0 -4.16177,-4.02147 -3.80674,-12.9203 0.46454,-16.83867 z"
       id="path4219-4-8-6-0-4-6"
       inkscape:connector-curvature="0"
       sodipodi:nodetypes="aaaaa" />
    <path
       style="fill:#de8787;fill-rule:evenodd;stroke:#000000;stroke-width:0.17252021px;stroke-linecap:butt;stroke-linejoin:miter;stroke-opacity:1"
       d="m 297.11012,511.79652 c 4.32529,-3.96792 13.84674,-4.02046 18.11695,0 4.21546,3.96891 4.21546,12.86976 0,16.83867 -4.3797,4.12354 -14.25902,4.17673 -18.58149,0 -4.16177,-4.02147 -3.80674,-12.9203 0.46454,-16.83867 z"
       id="path4219-4-8-6-4-5-1-2"
       inkscape:connector-curvature="0"
       sodipodi:nodetypes="aaaaa" />
    <path
       style="fill:#de8787;fill-rule:evenodd;stroke:#000000;stroke-width:0.17252021px;stroke-linecap:butt;stroke-linejoin:miter;stroke-opacity:1"
       d="m 633.95992,513.29249 c 4.32529,-3.96792 13.84675,-4.02046 18.11696,0 4.21546,3.96891 4.21546,12.86976 0,16.83867 -4.3797,4.12354 -14.25903,4.17673 -18.5815,0 -4.16177,-4.02147 -3.80674,-12.9203 0.46454,-16.83867 z"
       id="path4219-4-8-6-0-4-7"
       inkscape:connector-curvature="0"
       sodipodi:nodetypes="aaaaa" />
    <path
       style="fill:#de8787;fill-rule:evenodd;stroke:#000000;stroke-width:0.17252021px;stroke-linecap:butt;stroke-linejoin:miter;stroke-opacity:1"
       d="m 541.95992,513.29249 c 4.32529,-3.96792 13.84674,-4.02046 18.11695,0 4.21546,3.96891 4.21546,12.86976 0,16.83867 -4.3797,4.12354 -14.25902,4.17673 -18.58149,0 -4.16177,-4.02147 -3.80674,-12.9203 0.46454,-16.83867 z"
       id="path4219-4-8-6-4-5-1-7"
       inkscape:connector-curvature="0"
       sodipodi:nodetypes="aaaaa" />
    <path
       style="fill:#de8787;fill-rule:evenodd;stroke:#000000;stroke-width:0.17252021px;stroke-linecap:butt;stroke-linejoin:miter;stroke-opacity:1"
       d="m 632.77457,387.66318 c 4.32529,-3.96792 13.84675,-4.02046 18.11696,0 4.21546,3.96891 4.21546,12.86976 0,16.83867 -4.3797,4.12354 -14.25903,4.17673 -18.5815,0 -4.16177,-4.02147 -3.80674,-12.9203 0.46454,-16.83867 z"
       id="path4219-4-8-6-0-4-7-8"
       inkscape:connector-curvature="0"
       sodipodi:nodetypes="aaaaa" />
    <path
       style="fill:#de8787;fill-rule:evenodd;stroke:#000000;stroke-width:0.17252021px;stroke-linecap:butt;stroke-linejoin:miter;stroke-opacity:1"
       d="m 540.77457,387.66318 c 4.32529,-3.96792 13.84674,-4.02046 18.11695,0 4.21546,3.96891 4.21546,12.86976 0,16.83867 -4.3797,4.12354 -14.25902,4.17673 -18.58149,0 -4.16177,-4.02147 -3.80674,-12.9203 0.46454,-16.83867 z"
       id="path4219-4-8-6-4-5-1-7-1"
       inkscape:connector-curvature="0"
       sodipodi:nodetypes="aaaaa" />
    <path
       style="fill:#de8787;fill-rule:evenodd;stroke:#000000;stroke-width:0.17252021px;stroke-linecap:butt;stroke-linejoin:miter;stroke-opacity:1"
       d="m 632.77457,325.66318 c 4.32529,-3.96792 13.84675,-4.02046 18.11696,0 4.21546,3.96891 4.21546,12.86976 0,16.83867 -4.3797,4.12354 -14.25903,4.17673 -18.5815,0 -4.16177,-4.02147 -3.80674,-12.9203 0.46454,-16.83867 z"
       id="path4219-4-8-6-0-4-7-8-0"
       inkscape:connector-curvature="0"
       sodipodi:nodetypes="aaaaa" />
    <path
       style="fill:#de8787;fill-rule:evenodd;stroke:#000000;stroke-width:0.17252021px;stroke-linecap:butt;stroke-linejoin:miter;stroke-opacity:1"
       d="m 540.77457,325.66318 c 4.32529,-3.96792 13.84674,-4.02046 18.11695,0 4.21546,3.96891 4.21546,12.86976 0,16.83867 -4.3797,4.12354 -14.25902,4.17673 -18.58149,0 -4.16177,-4.02147 -3.80674,-12.9203 0.46454,-16.83867 z"
       id="path4219-4-8-6-4-5-1-7-1-1"
       inkscape:connector-curvature="0"
       sodipodi:nodetypes="aaaaa" />
    <path
       style="fill:#de8787;fill-rule:evenodd;stroke:#000000;stroke-width:0.17252021px;stroke-linecap:butt;stroke-linejoin:miter;stroke-opacity:1"
       d="m 633.66248,199.78334 c 4.32529,-3.96792 13.84675,-4.02046 18.11696,0 4.21546,3.96891 4.21546,12.86976 0,16.83867 -4.3797,4.12354 -14.25903,4.17673 -18.5815,0 -4.16177,-4.02147 -3.80674,-12.9203 0.46454,-16.83867 z"
       id="path4219-4-8-6-0-4-7-8-0-5"
       inkscape:connector-curvature="0"
       sodipodi:nodetypes="aaaaa" />
    <path
       style="fill:#de8787;fill-rule:evenodd;stroke:#000000;stroke-width:0.17252021px;stroke-linecap:butt;stroke-linejoin:miter;stroke-opacity:1"
       d="m 541.66248,199.78334 c 4.32529,-3.96792 13.84674,-4.02046 18.11695,0 4.21546,3.96891 4.21546,12.86976 0,16.83867 -4.3797,4.12354 -14.25902,4.17673 -18.58149,0 -4.16177,-4.02147 -3.80674,-12.9203 0.46454,-16.83867 z"
       id="path4219-4-8-6-4-5-1-7-1-1-9"
       inkscape:connector-curvature="0"
       sodipodi:nodetypes="aaaaa" />
  </g>
</svg>
